<svg width="26" height="25" viewBox="0 0 26 25" fill="none" xmlns="http://www.w3.org/2000/svg">
<path d="M10.7585 23.0769C10.7585 23.4573 10.6533 23.8291 10.4563 24.1453C10.2593 24.4616 9.97923 24.7081 9.65159 24.8536C9.32395 24.9992 8.96342 25.0372 8.61559 24.963C8.26777 24.8888 7.94827 24.7057 7.69751 24.4367C7.44674 24.1678 7.27596 23.8251 7.20678 23.4521C7.13759 23.0791 7.1731 22.6924 7.30881 22.341C7.44453 21.9896 7.67435 21.6893 7.96922 21.4779C8.26409 21.2666 8.61077 21.1538 8.96541 21.1538C9.44096 21.1538 9.89704 21.3565 10.2333 21.7171C10.5696 22.0777 10.7585 22.5669 10.7585 23.0769ZM20.6204 21.1538C20.2658 21.1538 19.9191 21.2666 19.6242 21.4779C19.3294 21.6893 19.0996 21.9896 18.9638 22.341C18.8281 22.6924 18.7926 23.0791 18.8618 23.4521C18.931 23.8251 19.1018 24.1678 19.3525 24.4367C19.6033 24.7057 19.9228 24.8888 20.2706 24.963C20.6184 25.0372 20.979 24.9992 21.3066 24.8536C21.6343 24.7081 21.9143 24.4616 22.1113 24.1453C22.3083 23.8291 22.4135 23.4573 22.4135 23.0769C22.4135 22.5669 22.2246 22.0777 21.8883 21.7171C21.5521 21.3565 21.096 21.1538 20.6204 21.1538ZM25.8249 5.19832C25.7415 5.07714 25.6327 4.97866 25.5074 4.91081C25.382 4.84296 25.2436 4.80764 25.1031 4.80769H5.4151L4.50624 1.39423C4.39777 0.993201 4.17111 0.640634 3.8602 0.3893C3.54929 0.137966 3.17085 0.00138516 2.78152 0H0.896541C0.658763 0 0.430725 0.101305 0.262591 0.281628C0.0944567 0.461951 0 0.706523 0 0.961538C0 1.21655 0.0944567 1.46113 0.262591 1.64145C0.430725 1.82177 0.658763 1.92308 0.896541 1.92308H2.78152L6.83612 17.1382C6.99838 17.7398 7.33798 18.2688 7.80406 18.646C8.27014 19.0233 8.83762 19.2284 9.42152 19.2308H20.1923C20.768 19.2329 21.329 19.036 21.7921 18.6693C22.2552 18.3025 22.5957 17.7854 22.7632 17.1947L25.9605 6.05168C26.0016 5.90797 26.0108 5.75591 25.9873 5.60771C25.9637 5.4595 25.9081 5.31929 25.8249 5.19832Z" fill="white"/>
</svg>
