<svg width="21" height="15" viewBox="0 0 21 15" fill="none" xmlns="http://www.w3.org/2000/svg">
<path d="M20.9501 5.4444L19.7251 2.32056C19.6211 2.05612 19.4417 1.82964 19.21 1.67049C18.9783 1.51135 18.7051 1.42688 18.4258 1.42804H15.4V0.714019C15.4 0.524649 15.3263 0.343036 15.195 0.209131C15.0637 0.0752269 14.8857 0 14.7 0H1.4C1.0287 0 0.672601 0.150454 0.410051 0.418263C0.1475 0.686072 0 1.0493 0 1.42804V11.4243C0 11.803 0.1475 12.1663 0.410051 12.4341C0.672601 12.7019 1.0287 12.8523 1.4 12.8523H2.8875C3.04171 13.4667 3.39199 14.0112 3.88312 14.4001C4.37424 14.7889 4.97828 15 5.6 15C6.22172 15 6.82576 14.7889 7.31688 14.4001C7.80801 14.0112 8.15829 13.4667 8.3125 12.8523H12.6875C12.8417 13.4667 13.192 14.0112 13.6831 14.4001C14.1742 14.7889 14.7783 15 15.4 15C16.0217 15 16.6258 14.7889 17.1169 14.4001C17.608 14.0112 17.9583 13.4667 18.1125 12.8523H19.6C19.9713 12.8523 20.3274 12.7019 20.5899 12.4341C20.8525 12.1663 21 11.803 21 11.4243V5.71215C21.0001 5.62049 20.9832 5.52963 20.9501 5.4444ZM5.6 13.5664C5.32311 13.5664 5.05243 13.4826 4.8222 13.3257C4.59197 13.1688 4.41253 12.9458 4.30657 12.6848C4.20061 12.4239 4.17288 12.1367 4.2269 11.8597C4.28092 11.5827 4.41426 11.3283 4.61005 11.1285C4.80584 10.9288 5.0553 10.7928 5.32687 10.7377C5.59845 10.6826 5.87994 10.7109 6.13576 10.819C6.39157 10.9271 6.61022 11.1101 6.76406 11.3449C6.91789 11.5798 7 11.8559 7 12.1383C7 12.5171 6.8525 12.8803 6.58995 13.1481C6.3274 13.4159 5.9713 13.5664 5.6 13.5664ZM1.4 7.14019V1.42804H14V7.14019H1.4ZM15.4 13.5664C15.1231 13.5664 14.8524 13.4826 14.6222 13.3257C14.392 13.1688 14.2125 12.9458 14.1066 12.6848C14.0006 12.4239 13.9729 12.1367 14.0269 11.8597C14.0809 11.5827 14.2143 11.3283 14.4101 11.1285C14.6058 10.9288 14.8553 10.7928 15.1269 10.7377C15.3984 10.6826 15.6799 10.7109 15.9358 10.819C16.1916 10.9271 16.4102 11.1101 16.5641 11.3449C16.7179 11.5798 16.8 11.8559 16.8 12.1383C16.8 12.5171 16.6525 12.8803 16.3899 13.1481C16.1274 13.4159 15.7713 13.5664 15.4 13.5664ZM15.4 4.99813V2.85608H18.4258L19.2657 4.99813H15.4Z" fill="white"/>
</svg>
